<?xml version="1.0" encoding="UTF-8"?>
<svg id="Layer_1" xmlns="http://www.w3.org/2000/svg" version="1.1" viewBox="0 0 791.7 133.9">
  <!-- Generator: Adobe Illustrator 29.5.1, SVG Export Plug-In . SVG Version: 2.1.0 Build 141)  -->
  <defs>
    <style>
      .st0 {
        fill: #dc2228;
      }
    </style>
  </defs>
  <path class="st0" d="M17.6,126.1v-14.3c.1-11.2,4.2-22,11.7-30.4l41.6-44.1c2.6-2.9,4.7-6.3,6.2-9.9H1.7V8h98.1v16s1.1,6.7-10.3,18.2l-40.5,44.9c-5.1,6.7-8.1,14.7-8.7,23.1v15.9h-22.6Z"/>
  <g>
    <path d="M146.9,95c1.2,3.8,3.2,7.3,6.1,10.1,3.1,2.9,7,4.8,11.2,5.3.3,0,.6,0,.8,0,.3,0,.6.2.8.3.8.1,1.7.3,2.6.4.9.1,1.8.2,2.8.2h1.4c.5,0,1,0,1.4-.2,2.7-.2,5.4-1,7.9-2.1,2.4-1,4.5-2.7,6.1-4.8.7-1.2,1.3-2.4,1.8-3.7.5-1.3.9-2.7,1-4.1.1-.3.2-.7.2-1v-1c0-.6,0-1.2,0-1.8,0-.6-.2-1.2-.3-1.8-.1-1-.3-1.9-.6-2.9-.3-.9-.7-1.7-1.2-2.5-1.6-2.4-3.8-4.4-6.4-5.7-3-1.7-6.1-3.2-9.2-4.4-2.2-1-4.4-1.9-6.6-2.8-2-.7-3.9-1.6-5.7-2.6-.1,0-.3,0-.4,0-.2,0-.3-.2-.4-.3-5.9-2.9-11.4-6.5-16.5-10.7-5-4-8.4-9.8-9.3-16.2,0-.4,0-.8,0-1.2,0-.4-.1-.8-.1-1.2-.1-.4-.2-.8-.3-1.2,0-.4-.1-.8-.1-1.2,0-.8,0-1.6.1-2.4,0-.8.2-1.7.3-2.6.6-3.1,1.6-6.1,3-9,1.4-2.8,3.2-5.4,5.4-7.6,3.4-3.5,7.5-6.1,12.1-7.8,4.9-1.9,10-3.1,15.2-3.4h4.3c.6,0,1.1,0,1.6.2,6.8.4,13.5,2.2,19.5,5.4,5.9,3,10.6,8.1,13.1,14.2l-15.8,7.8c-2.2-3.1-4.9-5.8-8.1-7.9-3.3-2-7.1-3.1-11-3h-.6c-4.5,0-8.8,1.6-12.1,4.6-3,2.4-5,5.9-5.5,9.7v1.2c0,.4,0,.9.1,1.3,0,.5.2.9.3,1.3.3,1.7,1,3.4,2.1,4.8,1.1,1.6,2.5,2.9,4.1,4,2.8,2.3,5.9,4.3,9.1,5.8,3.4,1.6,6.7,3,10.2,4.3l.6.3.6.3c2.6,1,5.2,2.1,7.7,3.1,2.5,1,4.8,2.3,7.1,3.7,4.2,2.6,7.7,6.1,10.3,10.3,2.4,3.8,4,8.1,4.6,12.6.1.8.2,1.5.3,2.3,0,.8.1,1.5.1,2.3,0,7.2-2.4,14.3-6.7,20.1-4.3,5.8-10.4,10.1-17.3,12.3-1.4.4-2.8.8-4.3,1.1-1.5.4-3,.6-4.5.8-1.7.2-3.2.4-4.7.6-1.5.1-3,.2-4.3.2-8.8,0-17.4-2.2-25.1-6.7-3.8-2.2-7.1-5-9.7-8.5-2.6-3.4-4.6-7.4-5.7-11.5l16.8-7.1Z"/>
    <path d="M259.2,8h-20.7v118.1h20.7V8Z"/>
    <path d="M437,3.4l80.5,71.9c.7.6,1.3,1.2,1.8,1.8.5.6,1.2,1.2,1.8,1.8.8.8,1.6,1.6,2.4,2.4l2.4,2.6c1,.9,1.9,1.9,2.8,2.9.9,1,1.8,2,2.8,3V8h18.9v122.4l-82.1-73.2c-2.3-2-4.4-4.1-6.5-6.4-2-2.2-3.9-4.5-5.9-7v82.2h-18.9V3.4Z"/>
    <path d="M626.6,3.4l-61.2,122.6h21.8l14.6-30.5,7.6-15.8,12.9-26.9c1.1-2.2,2-4.4,2.8-6.7.8-2.3,1.4-4.6,2-6.9.1.5.3,1,.4,1.4.1.4.3.9.4,1.2.5,1.9,1.1,3.8,1.7,5.5.6,1.8,1.4,3.6,2.2,5.3l12.9,26.9h-25.2l-13.4,15.8h45.9l14.2,30.5h22L626.6,3.4Z"/>
    <path d="M708.1,8h20.5v100.7h51.7v17.4h-72.2V8Z"/>
    <path d="M408.1,65.8h-53.1l-12.4,16h44.4-.1c-.9,28-32.6,30.1-32.6,30.1h-.4c-1.1.2-2.1.2-3.2.2-10.9.1-21.5-3.3-30.2-9.7-4.4-3.1-8-7.1-10.9-11.6-2.8-4.5-4.7-9.6-5.6-14.9,0-.5,0-1.1-.1-1.6,0-.6-.2-1.2-.3-1.8,0-.3,0-.6-.1-.9,0-.3-.1-.6-.1-.9,0-.6,0-1.3,0-1.9,0-.6-.1-1.3-.1-1.9,0-9.3,2.9-18.4,8.3-26,5.9-8.2,14.6-14,24.5-16.3l1.5-.4c.4-.1.9-.2,1.3-.2,2.1-.4,4-.7,6-.9,1.9-.2,3.8-.3,5.6-.3,5.9,0,11.7,1.1,17.1,3.4,5.6,2.4,10.7,5.9,15.1,10.1l15-10.5c-6.3-6.7-14-11.9-22.5-15.3-8.5-3.4-17.6-5.1-26.8-5.1s-3.8,0-5.7.2c-1.9.1-3.9.4-5.8.8-3.4.5-6.7,1.3-10,2.2-3.3.9-6.5,2.2-9.6,3.7-11,4.7-20.3,12.7-26.5,23-5.9,9.6-9,20.7-9,31.9,0,1.1,0,2.3.1,3.5,0,1.2.2,2.4.3,3.7.6,4.9,1.8,9.8,3.5,14.4,1.8,4.8,4.1,9.4,7,13.6,5.5,8.4,13.4,15,22.7,18.9,9.7,4.3,20.1,6.8,30.7,7.2h3.3c1.5,0,3,0,4.5-.1h0c54-4.2,53.6-49.3,53.6-49.3l.4-13.5Z"/>
    <g>
      <path d="M780.6,7c-1.5,0-3,.4-4.2,1.3-1.3.8-2.2,2-2.8,3.4-.6,1.4-.7,2.9-.4,4.4.3,1.5,1,2.8,2.1,3.9,1.1,1.1,2.4,1.8,3.9,2.1,1.5.3,3,.1,4.4-.4,1.4-.6,2.6-1.6,3.4-2.8.8-1.3,1.3-2.7,1.3-4.2,0-2-.8-4-2.2-5.4-1.4-1.4-3.4-2.2-5.4-2.2ZM780.6,24.1c-1.9,0-3.7-.5-5.2-1.6-1.6-1-2.8-2.5-3.5-4.2-.7-1.7-.9-3.6-.5-5.4.4-1.8,1.3-3.5,2.6-4.8,1.3-1.3,3-2.2,4.8-2.6,1.8-.4,3.7-.2,5.4.5,1.7.7,3.2,1.9,4.2,3.5,1,1.6,1.6,3.4,1.6,5.2,0,2.5-1,4.9-2.8,6.7-1.8,1.8-4.2,2.8-6.7,2.8h0Z"/>
      <path d="M781.4,14.2c.4,0,.8,0,1.1-.3.1-.1.2-.3.3-.5,0-.2,0-.4,0-.6,0-.2,0-.4,0-.6,0-.2-.2-.3-.3-.5-.3-.2-.7-.4-1.1-.3h-2.4v2.8h2.4ZM782.1,9.7c.4,0,.8,0,1.2.2.3.1.7.3.9.6.3.2.5.5.6.9.2.4.2.9.2,1.3,0,.4-.1.9-.4,1.3-.3.4-.7.8-1.2,1,.2,0,.5.2.7.3.2.2.3.3.4.5.1.2.2.4.2.7,0,.2,0,.5.1.7v.6c0,.2,0,.4,0,.7,0,.2,0,.4.1.6,0,.2.1.4.2.5h-2.2c-.1-.4-.2-.7-.2-1.1,0-.4,0-.9-.1-1.2,0-.4-.2-.8-.5-1.1-.3-.3-.8-.4-1.2-.4h-2.2v3.8h-2.2v-9.9h5.3Z"/>
    </g>
  </g>
</svg>